<?xml version="1.0" encoding="utf-8"?><!DOCTYPE svg PUBLIC "-//W3C//DTD SVG 1.1//EN" "http://www.w3.org/Graphics/SVG/1.1/DTD/svg11.dtd"><svg version="1.1" xmlns="http://www.w3.org/2000/svg" xmlns:xlink="http://www.w3.org/1999/xlink" viewBox="0 0 900 750" width="900" height="750"><g class="svg-logo"><g class="base"><g class="logo-element circle"><circle cx="450" cy="375" r="263" fill="none" stroke="rgba(159,39,148,1)" stroke-width="95"></circle></g></g><g class="swag"><g class="logo-element icon-buck"><path fill-rule="evenodd" clip-rule="evenodd" d="M522.851,272.064c-2.675-8.272-7.437-15.002-13.972-19.277         c-2.134-1.387-5.254-3.358-7.543-3.628c-1.016-0.121-4.82-0.096-4.746,1.685c0.132,2.234,2.844,2.746,4.471,3.904         c1.666,1.185,3.204,2.687,4.75,4.187c2.951,2.894,6.565,6.268,5.865,11.735c-4.676-0.416-7.138-4.965-12.013-5.589         c-3.149-0.394-8.43,1.185-7.543,4.475c0.379,1.408,4.169,1.932,5.869,2.509c2.285,0.786,4.386,1.751,5.586,2.797         c7.937,6.894,6.435,25.631-1.678,31.007c-0.854-2.903-1.2-4.992-2.789-8.091c-0.633-1.24-3.643-5.667-6.708-3.924         c-3.154,1.814,0.644,7.294,1.115,10.064c1.802,10.541-6.683,16.128-12.01,20.395c-1.428,1.145-2.992,2.345-4.47,3.355         c-1.645,1.12-3.433,2.257-4.75,2.511c-0.026-4.438,0.538-9.473-3.632-9.784c-2.02,2.001-1.862,5.303-2.234,8.386         c-0.801,6.622-3.09,10.663-6.704,15.086c-1.185,1.453-3.602,5.248-5.873,5.034c-1.802-0.174-4.275-4.732-5.585-6.429         c-2.039-2.652-3.761-4.847-5.306-6.986c-3.606-5.005-7.801-9.884-9.781-14.524c-1.169-2.752-1.191-5.943-4.19-6.707         c-1.053,1.752-1.638,3.955-2.514,5.872c-4.658-2.094-8.927-5.505-13.132-8.949c-4.699-3.844-10.936-8.426-12.014-14.81         c-0.5-2.965,0.53-7.381-4.466-6.7c-0.78,1.648-0.272,4.569-1.399,5.869c-9.75-3.322-9.743-21.868-3.355-28.775         c1.28-1.375,3.495-2.605,5.589-3.91c1.512-0.945,4.997-2.366,4.19-5.31c-1.118-4.1-7.406,0.004-8.941,0.839         c-3.429,1.869-6.248,3.653-8.381,5.03c-0.56-5.77,3.16-9.247,6.425-12.015c3.58-3.039,8.484-4.474,11.178-8.105         c-5.601-2.69-12.003,0.703-15.086,3.641c-6.326,5.997-12.775,20.494-11.179,32.68c1.104,8.412,7.069,14.714,12.297,19.833         c5.677,5.571,11.678,8.912,18.158,13.982c6.045,4.713,12.139,9.519,17.599,14.523c5.788,5.295,10.09,11.793,13.132,18.997         c-0.279,0-0.332-0.214-0.555-0.283c-0.173-0.015-0.335-0.042-0.28-0.269c-3.562-1.649-6.976-5.03-11.178-6.436         c-1.619-0.537-3.761-0.618-5.866-1.119c-3.708-0.883-12.024-5.42-15.085-2.229c-3.297,3.43,1.067,8.964,3.349,11.444         c4.963,5.412,8.993,7.563,15.086,11.74c0.942,0.644,7.764,4.792,7.826,5.589c0.018,0.221-2.565,3.235-3.072,3.908         c-1.391,1.836-2.223,3.124-3.076,4.199c-5.151,6.464-8.669,9.396-16.764,12.841c-3.297,1.409-8.044,3.672-8.382,6.987         c-0.191,1.902,1.244,5.015,2.237,6.428c1.568,2.203,4.324,3.731,7.263,5.865c2.569,1.858,5.343,3.981,7.264,4.743         c6.376,2.572,12.613-1.351,19.001-1.104c-0.964,6.723-2.098,10.803-3.356,15.924c-0.419,1.704-0.412,3.606-1.115,5.3         c-2.252,5.412-7.48,6.247-11.175,9.504c-2.829,2.49-6.247,7.285-6.704,12.573c-0.379,4.3,1.384,7.381,2.789,10.895         c5.453,13.6,14.622,23.619,23.748,32.406c3.923,3.771,8.26,6.611,12.297,10.335c2.859,2.636,6.91,9.755,11.73,9.505         c2.407-0.142,5.218-3.228,7.263-5.59c2.293-2.649,4.261-5.133,5.869-7.264c7.833-10.405,15.428-19.696,18.997-32.964         c1.825-6.789,2.377-14.432,2.796-23.2c0.78-16.45-3.087-31.46-6.984-44.423c-3.032-10.06-7.116-18.954-12.297-26.533         c-1.781-2.608-4.173-4.872-5.305-7.823c5.345-2.236,12.37-2.078,16.764-5.589c2.671-2.138,4.135-5.438,6.145-8.656         c1.237-1.984,5.417-7.316,4.751-9.509c-1.001-3.261-8.14-2.969-11.179-2.23c-6.822,1.668-12.632,6.159-18.438,8.103         c6.27-7.709,12.871-15.932,21.234-22.904c8.055-6.716,16.996-12.79,23.185-21.242C522.125,297.339,526.909,284.611,522.851,272.064z         " fill="rgba(174,52,112,1)"></path></g></g></g></svg>